<svg id="圖層_1" data-name="圖層 1" xmlns="http://www.w3.org/2000/svg" viewBox="0 0 132.55 85.74"><defs><style>.cls-1{fill:#d3e8c7;}.cls-2{fill:#494f5d;}.cls-3{fill:#be5926;}.cls-4,.cls-9{fill:none;stroke:#494f5d;stroke-miterlimit:10;}.cls-5{fill:#5d494e;}.cls-6{fill:#a88e72;}.cls-7{fill:#a8d4a8;}.cls-8{fill:#6c545a;}.cls-9{stroke-width:3px;}</style></defs><title>logo</title><path class="cls-1" d="M28.6,43.62h98.55a0,0,0,0,1,0,0V64.94a3.67,3.67,0,0,1-3.67,3.67H32.27a3.67,3.67,0,0,1-3.67-3.67V43.62a0,0,0,0,1,0,0Z"/><path class="cls-2" d="M472.48,284.9H394.4a1.73,1.73,0,0,0-1.09.39l-12,9.92a1.72,1.72,0,0,0-.61,1.31h0a1.7,1.7,0,0,0,1.7,1.7h99.87a1.7,1.7,0,0,0,1.7-1.7v-.09a1.7,1.7,0,0,0-.5-1.2l-9.83-9.83A1.7,1.7,0,0,0,472.48,284.9Z" transform="translate(-354.64 -254.6)"/><rect class="cls-3" x="42.41" y="40.64" width="66.63" height="5.55" rx="2.78" ry="2.78"/><polygon class="cls-1" points="101.89 81.66 99.45 81.66 99.45 74.77 100.67 73.44 101.89 74.77 101.89 81.66"/><polygon class="cls-1" points="105.55 81.66 103.11 81.66 103.11 74.77 104.33 73.44 105.55 74.77 105.55 81.66"/><polygon class="cls-1" points="109.11 81.66 106.66 81.66 106.66 74.77 107.89 73.44 109.11 74.77 109.11 81.66"/><polygon class="cls-1" points="112.77 81.66 110.33 81.66 110.33 74.77 111.55 73.44 112.77 74.77 112.77 81.66"/><polygon class="cls-1" points="116.33 81.66 113.88 81.66 113.88 74.77 115.1 73.44 116.33 74.77 116.33 81.66"/><polygon class="cls-1" points="119.99 81.66 117.55 81.66 117.55 74.77 118.77 73.44 119.99 74.77 119.99 81.66"/><polygon class="cls-1" points="123.54 81.66 121.1 81.66 121.1 74.77 122.32 73.44 123.54 74.77 123.54 81.66"/><polygon class="cls-1" points="127.21 81.66 124.76 81.66 124.76 74.77 125.98 73.44 127.21 74.77 127.21 81.66"/><rect class="cls-1" x="98.89" y="75.66" width="29.09" height="0.89"/><rect class="cls-1" x="98.56" y="80.77" width="29.43" height="0.89"/><rect class="cls-2" x="91.62" y="81.66" width="37.75" height="3.89"/><path class="cls-4" d="M387.68,319v-9.87a1,1,0,0,1,1-.95h7.24a1,1,0,0,1,1,.95V319" transform="translate(-354.64 -254.6)"/><rect class="cls-5" x="34.43" y="55.01" width="2.78" height="2.78" rx="0.88" ry="0.88"/><rect class="cls-5" x="34.43" y="58.34" width="2.78" height="2.78" rx="0.88" ry="0.88"/><rect class="cls-5" x="38.04" y="55.01" width="2.78" height="2.78" rx="0.88" ry="0.88"/><rect class="cls-5" x="38.04" y="58.34" width="2.78" height="2.78" rx="0.88" ry="0.88"/><path class="cls-4" d="M402.11,319v-9.87a1,1,0,0,1,1-.95h7.25a1,1,0,0,1,1,.95V319" transform="translate(-354.64 -254.6)"/><rect class="cls-5" x="48.87" y="55.01" width="2.78" height="2.78" rx="0.88" ry="0.88"/><rect class="cls-5" x="48.87" y="58.34" width="2.78" height="2.78" rx="0.88" ry="0.88"/><rect class="cls-5" x="52.47" y="55.01" width="2.78" height="2.78" rx="0.88" ry="0.88"/><rect class="cls-5" x="52.47" y="58.34" width="2.78" height="2.78" rx="0.88" ry="0.88"/><rect class="cls-6" x="30.09" y="64.17" width="34.32" height="1.67"/><path class="cls-2" d="M383.24,302H372a.82.82,0,0,0-.62.28L369,304.93a.82.82,0,0,0-.2.54V306a.82.82,0,0,0,.82.82h13.62Z" transform="translate(-354.64 -254.6)"/><rect class="cls-1" x="15.83" y="52.23" width="12.77" height="11.94"/><rect class="cls-6" x="32.9" y="66.39" width="0.83" height="1.67"/><rect class="cls-5" x="31.79" y="68.05" width="3.05" height="1.39"/><rect class="cls-6" x="26.66" y="61.67" width="0.83" height="1.67"/><rect class="cls-5" x="25.55" y="63.33" width="3.05" height="1.39"/><rect class="cls-6" x="21.38" y="61.67" width="0.83" height="1.67"/><rect class="cls-5" x="20.27" y="63.33" width="3.05" height="1.39"/><rect class="cls-6" x="16.39" y="61.67" width="0.83" height="1.67"/><rect class="cls-5" x="15.28" y="63.33" width="3.05" height="1.39"/><rect class="cls-6" x="38.59" y="66.39" width="0.83" height="1.67"/><rect class="cls-5" x="37.48" y="68.05" width="3.05" height="1.39"/><rect class="cls-6" x="44.29" y="66.39" width="0.83" height="1.67"/><rect class="cls-5" x="43.18" y="68.05" width="3.05" height="1.39"/><rect class="cls-6" x="49.98" y="66.39" width="0.83" height="1.67"/><rect class="cls-5" x="48.87" y="68.05" width="3.05" height="1.39"/><rect class="cls-6" x="55.67" y="66.39" width="0.83" height="1.67"/><rect class="cls-5" x="54.56" y="68.05" width="3.05" height="1.39"/><rect class="cls-6" x="61.36" y="66.39" width="0.83" height="1.67"/><rect class="cls-5" x="60.25" y="68.05" width="3.05" height="1.39"/><path class="cls-4" d="M473.46,319v-9.87a1,1,0,0,0-1-.95h-7.24a1,1,0,0,0-1,.95V319" transform="translate(-354.64 -254.6)"/><rect class="cls-5" x="469.3" y="309.6" width="2.78" height="2.78" rx="0.88" ry="0.88" transform="translate(586.73 367.39) rotate(180)"/><rect class="cls-5" x="469.3" y="312.94" width="2.78" height="2.78" rx="0.88" ry="0.88" transform="translate(586.73 374.05) rotate(180)"/><rect class="cls-5" x="465.69" y="309.6" width="2.78" height="2.78" rx="0.88" ry="0.88" transform="translate(579.51 367.39) rotate(180)"/><rect class="cls-5" x="465.69" y="312.94" width="2.78" height="2.78" rx="0.88" ry="0.88" transform="translate(579.51 374.05) rotate(180)"/><path class="cls-4" d="M459,319v-9.87a1,1,0,0,0-.95-.95h-7.25a1,1,0,0,0-1,.95V319" transform="translate(-354.64 -254.6)"/><rect class="cls-5" x="454.86" y="309.6" width="2.78" height="2.78" rx="0.88" ry="0.88" transform="translate(557.86 367.39) rotate(180)"/><rect class="cls-5" x="454.86" y="312.94" width="2.78" height="2.78" rx="0.88" ry="0.88" transform="translate(557.86 374.05) rotate(180)"/><rect class="cls-5" x="451.25" y="309.6" width="2.78" height="2.78" rx="0.88" ry="0.88" transform="translate(550.64 367.39) rotate(180)"/><rect class="cls-5" x="451.25" y="312.94" width="2.78" height="2.78" rx="0.88" ry="0.88" transform="translate(550.64 374.05) rotate(180)"/><rect class="cls-6" x="442.09" y="318.77" width="39.75" height="1.67" transform="translate(569.3 384.6) rotate(180)"/><rect class="cls-6" x="472.77" y="320.99" width="0.83" height="1.67" transform="translate(591.73 389.04) rotate(180)"/><rect class="cls-5" x="471.66" y="322.65" width="3.05" height="1.39" transform="translate(591.73 392.09) rotate(180)"/><rect class="cls-6" x="478.57" y="320.99" width="0.83" height="1.67" transform="translate(603.33 389.04) rotate(180)"/><rect class="cls-5" x="477.46" y="322.65" width="3.05" height="1.39" transform="translate(603.33 392.09) rotate(180)"/><rect class="cls-6" x="467.07" y="320.99" width="0.83" height="1.67" transform="translate(580.35 389.04) rotate(180)"/><rect class="cls-5" x="465.96" y="322.65" width="3.05" height="1.39" transform="translate(580.35 392.09) rotate(180)"/><rect class="cls-6" x="461.38" y="320.99" width="0.83" height="1.67" transform="translate(568.96 389.04) rotate(180)"/><rect class="cls-5" x="460.27" y="322.65" width="3.05" height="1.39" transform="translate(568.96 392.09) rotate(180)"/><rect class="cls-6" x="455.69" y="320.99" width="0.83" height="1.67" transform="translate(557.58 389.04) rotate(180)"/><rect class="cls-5" x="454.58" y="322.65" width="3.05" height="1.39" transform="translate(557.58 392.09) rotate(180)"/><rect class="cls-6" x="450" y="320.99" width="0.83" height="1.67" transform="translate(546.2 389.04) rotate(180)"/><rect class="cls-5" x="448.89" y="322.65" width="3.05" height="1.39" transform="translate(546.2 392.09) rotate(180)"/><rect class="cls-6" x="444.31" y="320.99" width="0.83" height="1.67" transform="translate(534.82 389.04) rotate(180)"/><rect class="cls-5" x="443.2" y="322.65" width="3.05" height="1.39" transform="translate(534.82 392.09) rotate(180)"/><polyline class="cls-1" points="68.3 58.06 68.3 48.9 74.13 43.35 81.35 49.45 81.35 57.78"/><rect class="cls-2" x="424.6" y="294.61" width="1.94" height="12.21" rx="0.97" ry="0.97" transform="translate(-17.35 -467.44) rotate(45)"/><rect class="cls-2" x="432.1" y="294.61" width="1.94" height="12.21" rx="0.97" ry="0.97" transform="translate(-440.44 139.71) rotate(-45)"/><path class="cls-2" d="M434.56,319h-1v-9.31a.44.44,0,0,0-.44-.44h-7.24a.44.44,0,0,0-.44.44V319h-1v-9.31a1.48,1.48,0,0,1,1.48-1.48h7.24a1.48,1.48,0,0,1,1.48,1.48Z" transform="translate(-354.64 -254.6)"/><rect class="cls-6" x="15.28" y="60.28" width="13.33" height="0.83"/><circle class="cls-7" cx="81.97" cy="52.79" r="1.39"/><rect class="cls-2" x="81.83" y="50.56" width="0.28" height="1.11"/><circle class="cls-7" cx="67.54" cy="52.79" r="1.39"/><rect class="cls-2" x="67.4" y="50.56" width="0.28" height="1.11"/><circle class="cls-7" cx="15.9" cy="54.45" r="1.39"/><rect class="cls-2" x="15.76" y="52.23" width="0.28" height="1.11"/><polyline class="cls-8" points="67.47 64.44 67.47 68.61 81.97 68.61 81.97 64.44"/><rect class="cls-2" x="28.6" y="43.62" width="1.94" height="1.39"/><polygon class="cls-2" points="29.3 45.01 29.3 46.12 30.2 47.02 30.54 46.4 29.99 45.85 29.99 45.01 29.3 45.01"/><rect class="cls-2" x="479.84" y="298.22" width="1.94" height="1.39" transform="translate(607 343.24) rotate(180)"/><polygon class="cls-2" points="126.46 45.01 126.46 46.12 125.56 47.02 125.21 46.4 125.76 45.85 125.76 45.01 126.46 45.01"/><path class="cls-9" d="M481.84,304.82h.57a1.6,1.6,0,0,1,1.6,1.59v16.8" transform="translate(-354.64 -254.6)"/><path class="cls-2" d="M418.77,340a2.64,2.64,0,0,1,5.28,0" transform="translate(-354.64 -254.6)"/><path class="cls-2" d="M409.7,340a2.64,2.64,0,0,1,5.28,0" transform="translate(-354.64 -254.6)"/><path class="cls-2" d="M400.63,340a2.64,2.64,0,0,1,5.28,0" transform="translate(-354.64 -254.6)"/><path class="cls-2" d="M391.57,340a2.64,2.64,0,0,1,5.27,0" transform="translate(-354.64 -254.6)"/><path class="cls-2" d="M381.85,340a2.64,2.64,0,0,1,5.27,0" transform="translate(-354.64 -254.6)"/><path class="cls-2" d="M372.78,340a2.64,2.64,0,0,1,5.27,0" transform="translate(-354.64 -254.6)"/><path class="cls-2" d="M363.71,340a2.64,2.64,0,0,1,5.28,0" transform="translate(-354.64 -254.6)"/><path class="cls-2" d="M354.64,340a2.64,2.64,0,0,1,5.28,0" transform="translate(-354.64 -254.6)"/><path class="cls-2" d="M423.77,335.28a2.64,2.64,0,0,1,5.27,0" transform="translate(-354.64 -254.6)"/><path class="cls-2" d="M414.7,335.28a2.64,2.64,0,0,1,5.27,0" transform="translate(-354.64 -254.6)"/><path class="cls-2" d="M405.63,335.28a2.64,2.64,0,0,1,5.28,0" transform="translate(-354.64 -254.6)"/><path class="cls-2" d="M396.56,335.28a2.64,2.64,0,0,1,5.28,0" transform="translate(-354.64 -254.6)"/><path class="cls-2" d="M386.85,335.28a2.64,2.64,0,0,1,5.27,0" transform="translate(-354.64 -254.6)"/><path class="cls-2" d="M377.78,335.28a2.64,2.64,0,0,1,5.27,0" transform="translate(-354.64 -254.6)"/><path class="cls-2" d="M368.71,335.28a2.64,2.64,0,0,1,5.27,0" transform="translate(-354.64 -254.6)"/><path class="cls-2" d="M359.64,335.28a2.64,2.64,0,0,1,5.27,0" transform="translate(-354.64 -254.6)"/><path class="cls-2" d="M354.64,332a2.64,2.64,0,0,1,5.28,0" transform="translate(-354.64 -254.6)"/><path class="cls-2" d="M359.64,327.23a2.64,2.64,0,0,1,5.27,0" transform="translate(-354.64 -254.6)"/><path class="cls-2" d="M354.64,323.35a2.64,2.64,0,0,1,5.28,0" transform="translate(-354.64 -254.6)"/><path class="cls-2" d="M359.64,318.63a2.64,2.64,0,1,1,5.27,0" transform="translate(-354.64 -254.6)"/><path class="cls-2" d="M354.64,315.3a2.64,2.64,0,0,1,5.28,0" transform="translate(-354.64 -254.6)"/><path class="cls-2" d="M359.64,310.58a2.64,2.64,0,1,1,5.27,0" transform="translate(-354.64 -254.6)"/><path class="cls-2" d="M400.73,281.07a2.64,2.64,0,0,1,5.27,0" transform="translate(-354.64 -254.6)"/><path class="cls-2" d="M395.73,277.74a2.64,2.64,0,0,1,5.27,0" transform="translate(-354.64 -254.6)"/><path class="cls-2" d="M400.73,273a2.64,2.64,0,0,1,5.27,0" transform="translate(-354.64 -254.6)"/><path class="cls-2" d="M389.34,281.07a2.64,2.64,0,0,1,5.28,0" transform="translate(-354.64 -254.6)"/><path class="cls-2" d="M384.35,277.74a2.64,2.64,0,0,1,5.27,0" transform="translate(-354.64 -254.6)"/><path class="cls-2" d="M389.34,273a2.64,2.64,0,0,1,5.28,0" transform="translate(-354.64 -254.6)"/><path class="cls-2" d="M378.33,281.07a2.64,2.64,0,0,1,5.28,0" transform="translate(-354.64 -254.6)"/><path class="cls-2" d="M373.34,277.74a2.64,2.64,0,0,1,5.27,0" transform="translate(-354.64 -254.6)"/><path class="cls-2" d="M378.33,273a2.64,2.64,0,0,1,5.28,0" transform="translate(-354.64 -254.6)"/><path class="cls-2" d="M367,273a2.64,2.64,0,0,1,5.28,0" transform="translate(-354.64 -254.6)"/><circle class="cls-2" cx="118.9" cy="12.77" r="3.03"/><circle class="cls-2" cx="111.73" cy="15.79" r="1.55"/><circle class="cls-2" cx="115.88" cy="15.19" r="3.72"/><polygon class="cls-1" points="116.25 25.47 114.64 25.47 115.01 16.8 115.88 16.8 116.25 25.47"/><circle class="cls-2" cx="129.52" cy="3.03" r="3.03"/><circle class="cls-2" cx="122.34" cy="6.06" r="1.55"/><circle class="cls-2" cx="126.49" cy="5.45" r="3.72"/><polygon class="cls-1" points="126.87 15.73 125.25 15.73 125.63 7.06 126.49 7.06 126.87 15.73"/><circle class="cls-2" cx="127.8" cy="20.4" r="3.03"/><circle class="cls-2" cx="120.63" cy="23.42" r="1.55"/><circle class="cls-2" cx="124.78" cy="22.81" r="3.72"/><polygon class="cls-1" points="125.15 33.09 123.54 33.09 123.91 24.42 124.78 24.42 125.15 33.09"/><rect class="cls-2" x="13.45" y="72.5" width="6.11" height="1.11"/><polygon class="cls-2" points="15.61 73.83 14.68 73.83 13.56 77.1 14.49 77.1 15.61 73.83"/><polygon class="cls-2" points="17.33 73.83 18.26 73.83 19.38 77.1 18.45 77.1 17.33 73.83"/><rect class="cls-2" x="21.91" y="72.5" width="6.11" height="1.11"/><rect class="cls-2" x="31.63" y="70.39" width="17.54" height="1.11"/><rect class="cls-2" x="387.66" y="326.29" width="1.16" height="5.41" transform="translate(421.83 403.39) rotate(180)"/><rect class="cls-2" x="387.09" y="327.71" width="2.3" height="0.99" transform="translate(421.83 401.82) rotate(180)"/><rect class="cls-2" x="401.29" y="326.29" width="1.16" height="5.41" transform="translate(449.11 403.39) rotate(180)"/><rect class="cls-2" x="400.72" y="327.71" width="2.3" height="0.99" transform="translate(449.11 401.82) rotate(180)"/><polygon class="cls-2" points="24.07 73.83 23.15 73.83 22.03 77.1 22.95 77.1 24.07 73.83"/><polygon class="cls-2" points="25.8 73.83 26.73 73.83 27.84 77.1 26.92 77.1 25.8 73.83"/><circle class="cls-2" cx="78.98" cy="82.9" r="2.83"/><path class="cls-2" d="M432.7,335.06l-.41-.4a.15.15,0,0,1,.1-.25h2.46a.15.15,0,0,1,.1.25l-.47.47a.15.15,0,0,1-.11,0l-1.58-.06A.16.16,0,0,1,432.7,335.06Z" transform="translate(-354.64 -254.6)"/><rect class="cls-1" x="75.88" y="82.48" width="6.14" height="0.61" rx="0.31" ry="0.31"/><circle class="cls-2" cx="86.68" cy="82.9" r="2.83"/><path class="cls-2" d="M440.39,335.06l-.4-.4a.15.15,0,0,1,.1-.25h2.46a.15.15,0,0,1,.1.25l-.47.47a.15.15,0,0,1-.11,0l-1.58-.06A.19.19,0,0,1,440.39,335.06Z" transform="translate(-354.64 -254.6)"/><rect class="cls-1" x="83.58" y="82.48" width="6.14" height="0.61" rx="0.31" ry="0.31"/><path class="cls-2" d="M395.61,282.14l-1.14.29a.55.55,0,0,0-.41.53v2h2.22v-2.27A.53.53,0,0,0,395.61,282.14Z" transform="translate(-354.64 -254.6)"/><path class="cls-2" d="M471.4,282.14l1.14.29a.55.55,0,0,1,.41.53v2h-2.22v-2.27A.53.53,0,0,1,471.4,282.14Z" transform="translate(-354.64 -254.6)"/><rect class="cls-1" x="91.81" y="17.71" width="13.65" height="8.77"/><path class="cls-2" d="M446.37,270.38H460.1v3.08H445.35a.16.16,0,0,1-.16-.22l.92-2.67A.29.29,0,0,1,446.37,270.38Z" transform="translate(-354.64 -254.6)"/><rect class="cls-2" x="93.38" y="19.8" width="2.08" height="2.08" rx="1.04" ry="1.04"/><rect class="cls-2" x="99.81" y="19.8" width="2.08" height="2.08" rx="1.04" ry="1.04"/><rect class="cls-2" x="96.55" y="19.8" width="2.08" height="2.08" rx="1.04" ry="1.04"/><rect class="cls-2" x="102.68" y="19.8" width="2.08" height="2.08" rx="1.04" ry="1.04"/><rect class="cls-1" x="73.78" y="17.71" width="13.65" height="8.77"/><path class="cls-2" d="M428.34,270.38h13.73v3.08H427.32a.16.16,0,0,1-.16-.22l.93-2.67A.27.27,0,0,1,428.34,270.38Z" transform="translate(-354.64 -254.6)"/><rect class="cls-2" x="75.35" y="19.8" width="2.08" height="2.08" rx="1.04" ry="1.04"/><rect class="cls-2" x="81.78" y="19.8" width="2.08" height="2.08" rx="1.04" ry="1.04"/><rect class="cls-2" x="78.52" y="19.8" width="2.08" height="2.08" rx="1.04" ry="1.04"/><rect class="cls-2" x="84.65" y="19.8" width="2.08" height="2.08" rx="1.04" ry="1.04"/><rect class="cls-1" x="55.16" y="17.71" width="13.65" height="8.77"/><path class="cls-2" d="M409.73,270.38h13.72v3.08H408.71a.16.16,0,0,1-.16-.22l.92-2.67A.28.28,0,0,1,409.73,270.38Z" transform="translate(-354.64 -254.6)"/><rect class="cls-2" x="56.73" y="19.8" width="2.08" height="2.08" rx="1.04" ry="1.04"/><rect class="cls-2" x="63.16" y="19.8" width="2.08" height="2.08" rx="1.04" ry="1.04"/><rect class="cls-2" x="59.91" y="19.8" width="2.08" height="2.08" rx="1.04" ry="1.04"/><rect class="cls-2" x="66.03" y="19.8" width="2.08" height="2.08" rx="1.04" ry="1.04"/><path class="cls-2" d="M360,297.76a.72.72,0,0,0-.86,0l-4.38,3.17a.23.23,0,0,0,0,.38,11.68,11.68,0,0,0,4.82.7,12,12,0,0,0,4.79-.68.26.26,0,0,0,0-.42Z" transform="translate(-354.64 -254.6)"/><polygon class="cls-2" points="5.33 51.03 4.64 51.03 4.43 46.22 5.54 46.22 5.33 51.03"/><path class="cls-2" d="M360,287.7a.72.72,0,0,0-.86,0l-4.38,3.16a.24.24,0,0,0,0,.39c.59.4,2.52.69,4.82.69a11.78,11.78,0,0,0,4.79-.68.25.25,0,0,0,0-.41Z" transform="translate(-354.64 -254.6)"/><polygon class="cls-2" points="5.33 40.96 4.64 40.96 4.43 36.15 5.54 36.15 5.33 40.96"/><path class="cls-2" d="M360,277.82a.72.72,0,0,0-.86,0L354.74,281a.24.24,0,0,0,0,.39c.59.4,2.52.69,4.82.69a11.78,11.78,0,0,0,4.79-.68.25.25,0,0,0,0-.41Z" transform="translate(-354.64 -254.6)"/><polygon class="cls-2" points="5.33 31.09 4.64 31.09 4.43 26.28 5.54 26.28 5.33 31.09"/><rect class="cls-2" x="16.72" y="44.07" width="3.26" height="0.93"/><rect class="cls-2" x="17.86" y="31.09" width="0.98" height="12.98"/><rect class="cls-2" x="17.39" y="30.55" width="1.92" height="0.53"/><rect class="cls-1" x="17.15" y="26.48" width="2.39" height="4.09"/><polygon class="cls-2" points="20.1 26.48 16.6 26.48 16.72 25.91 19.98 25.91 20.1 26.48"/><path class="cls-8" d="M439.56,281.44a1.14,1.14,0,0,1,2.27,0" transform="translate(-354.64 -254.6)"/><path class="cls-8" d="M442.57,281.44a1.14,1.14,0,0,1,2.27,0" transform="translate(-354.64 -254.6)"/><path class="cls-8" d="M445.41,281.44a1.14,1.14,0,0,1,2.27,0" transform="translate(-354.64 -254.6)"/><path class="cls-8" d="M448.42,281.44a1.14,1.14,0,0,1,2.27,0" transform="translate(-354.64 -254.6)"/><path class="cls-8" d="M415.84,281.44a1.14,1.14,0,0,1,2.27,0" transform="translate(-354.64 -254.6)"/><path class="cls-8" d="M418.85,281.44a1.14,1.14,0,0,1,2.27,0" transform="translate(-354.64 -254.6)"/><path class="cls-8" d="M421.7,281.44a1.13,1.13,0,0,1,2.26,0" transform="translate(-354.64 -254.6)"/><path class="cls-8" d="M424.71,281.44a1.13,1.13,0,0,1,2.26,0" transform="translate(-354.64 -254.6)"/><path class="cls-8" d="M451.19,281.44a1.14,1.14,0,0,1,2.27,0" transform="translate(-354.64 -254.6)"/><path class="cls-8" d="M454.2,281.44a1.13,1.13,0,0,1,2.26,0" transform="translate(-354.64 -254.6)"/><path class="cls-1" d="M357,340.33a1.14,1.14,0,0,1,2.27,0" transform="translate(-354.64 -254.6)"/><path class="cls-1" d="M359.82,340.33a1.14,1.14,0,0,1,2.27,0" transform="translate(-354.64 -254.6)"/><path class="cls-1" d="M362.83,340.33a1.13,1.13,0,0,1,2.26,0" transform="translate(-354.64 -254.6)"/><path class="cls-1" d="M365.59,340.33a1.14,1.14,0,0,1,2.27,0" transform="translate(-354.64 -254.6)"/><path class="cls-1" d="M368.6,340.33a1.14,1.14,0,0,1,2.27,0" transform="translate(-354.64 -254.6)"/><rect class="cls-2" x="84.66" y="38.37" width="12.25" height="7.76"/><rect class="cls-2" x="53.08" y="38.37" width="11.58" height="7.76"/></svg>